<?xml version="1.0" encoding="UTF-8"?>
<svg width="19px" height="18px" viewBox="0 0 19 18" version="1.1" xmlns="http://www.w3.org/2000/svg" xmlns:xlink="http://www.w3.org/1999/xlink">
    <!-- Generator: Sketch 48.2 (47327) - http://www.bohemiancoding.com/sketch -->
    <title>LinkedIn</title>
    <desc>Created with Sketch.</desc>
    <defs></defs>
    <g id="UX-Experience" stroke="none" stroke-width="1" fill="none" fill-rule="evenodd" transform="translate(-230.000000, -2979.000000)">
        <g id="Group-14" transform="translate(120.000000, 2979.000000)" fill="#000000" fill-rule="nonzero">
            <path d="M128.958333,17.1904762 L124.768283,17.1904762 L124.768283,11.1473362 C124.768283,9.5655528 124.112856,8.48571327 122.671586,8.48571327 C121.569176,8.48571327 120.956107,9.2144124 120.67075,9.91669321 C120.563742,10.1687662 120.580462,10.5199066 120.580462,10.871047 L120.580462,17.1904762 L116.429425,17.1904762 C116.429425,17.1904762 116.48293,6.48564306 116.429425,5.51257615 L120.580462,5.51257615 L120.580462,7.34533189 C120.82569,6.5439828 122.152149,5.40029956 124.26891,5.40029956 C126.895076,5.40029956 128.958333,7.08005018 128.958333,10.6971279 L128.958333,17.1904762 Z M112.231572,4.0518756 L112.20482,4.0518756 C110.867214,4.0518756 110,3.15916429 110,2.02758916 C110,0.87399862 110.892852,0 112.25721,0 C113.620453,0 114.458686,0.87179738 114.485438,2.02428687 C114.485438,3.155862 113.620453,4.0518756 112.231572,4.0518756 Z M110.478194,5.51257615 L114.17333,5.51257615 L114.17333,17.1904762 L110.478194,17.1904762 L110.478194,5.51257615 Z" id="LinkedIn"></path>
        </g>
    </g>
</svg>