<?xml version="1.0" encoding="UTF-8"?>
<svg width="17px" height="14px" viewBox="0 0 17 14" version="1.1" xmlns="http://www.w3.org/2000/svg" xmlns:xlink="http://www.w3.org/1999/xlink">
    <!-- Generator: Sketch 48.2 (47327) - http://www.bohemiancoding.com/sketch -->
    <title>Group 3</title>
    <desc>Created with Sketch.</desc>
    <defs></defs>
    <g id="UX-Experience" stroke="none" stroke-width="1" fill="none" fill-rule="evenodd" transform="translate(-120.000000, -2983.000000)">
        <g id="Group-14" transform="translate(120.000000, 2979.000000)" fill="#000000" fill-rule="nonzero">
            <g id="Group-3" transform="translate(0.000000, 4.000000)">
                <path d="M16.9748403,2.61154325 C16.971543,2.60896506 16.9689053,2.60558119 16.9647836,2.60364755 L16.9588486,2.60074709 L11.7541072,0.0572035449 C11.7189913,0.0399619129 11.6820619,0.0283600674 11.6446378,0.019014136 C11.5976517,0.00725115358 11.5496765,0 11.5015363,0 C11.3022163,0 11.1038855,0.097810005 10.9963945,0.268292683 L8,5.02762761 L11.760372,11 L16.9908321,2.69275617 C17.0081427,2.66504065 16.9998996,2.63087966 16.9748403,2.61154325" id="Fill-53"></path>
                <polyline id="Fill-54" points="6 3 6 8.53853757 11 11 6 3"></polyline>
                <path d="M12,11.912743 L16.0465537,13.8830788 C16.5731206,14.1395637 17,13.9599762 17,13.4822511 L17,4 L12,11.912743" id="Fill-55"></path>
                <path d="M4.97305431,2.51370422 L0.553819691,0.0651177565 C0.473985953,0.0209647412 0.398022072,0 0.329224595,0 C0.13573169,0 0,0.165970867 0,0.44438898 L0,11.0172891 C0,11.3003131 0.186899813,11.6354313 0.415364769,11.7620139 L4.30772539,13.9185234 C4.40748173,13.9737941 4.50250824,14 4.58836176,14 C4.83029954,14 5,13.7925761 5,13.4444344 L5,2.56182784 C5,2.54149839 4.98953705,2.52275718 4.97305431,2.51370422" id="Fill-56"></path>
            </g>
        </g>
    </g>
</svg>